<svg id="eY0HPK9Aq1a1" xmlns="http://www.w3.org/2000/svg" xmlns:xlink="http://www.w3.org/1999/xlink" viewBox="0 0 400 400" shape-rendering="geometricPrecision" text-rendering="geometricPrecision"><g id="eY0HPK9Aq1a2"><path id="eY0HPK9Aq1a3" d="M385.200000,190.159971C387.188105,187.834872,386.948105,186.254872,386.385755,185.516044C385.823405,184.777216,384.651211,184.219135,382.181430,185.005846C362.197775,191.371338,47.730607,291.852703,38.028000,294.977971C35.613565,295.755675,35.710295,298.525147,37.629000,299.386971C50.665202,305.242436,206.576396,375.491402,210,377.049971C211.430530,377.701209,212.916396,378.531402,214.976396,378.531402C217.036396,378.531402,218.601695,376.538352,220,374.977971C224.056396,370.451402,375.085512,201.563593,385.200000,190.159971" fill="rgb(244,188,20)" fill-rule="evenodd" stroke="none" stroke-width="1"/><path id="eY0HPK9Aq1a4" d="M284.600000,79.187000C284.160000,79.372000,281.094000,81.836000,277.786000,84.662000C271.973000,89.628000,70.267000,260.084000,53.600000,274.134000C40.221000,285.412000,40,285.624000,40,287.194000C40,290.340000,41.786000,290.287000,52.011000,286.836000C56.515000,285.316000,280.027000,210.424000,282.748000,209.542000C285.808000,208.551000,288.056000,207.581000,288.637000,207L289.577000,206.060000L289.585000,181.330000C289.589000,167.728000,288.806000,95.239000,288.785000,89.904000C288.741000,78.503000,288.387000,77.595000,284.600000,79.187000" fill="rgb(252,76,20)" fill-rule="evenodd" stroke="none" stroke-width="1"/><path id="eY0HPK9Aq1a5" d="M161.096000,22.900000C160.735000,23.175000,159.196000,26.190000,157.676000,29.600000C156.156000,33.010000,53.482000,263.114000,53.151000,264.256000C52.118000,267.817000,55.501000,268.966000,58.601000,266.107000C60.052000,264.768000,195.700000,141.368000,199,138.409000C213.934000,125.019000,213.196000,128.153000,205.407000,111.200000C202.427000,104.712000,166.979000,27.430000,166.335000,26C165.032000,23.105000,164.339000,22.400000,162.800000,22.400000C162.224000,22.400000,161.457000,22.625000,161.096000,22.900000M53.600000,274.134000" fill="rgb(252,76,20)" fill-rule="evenodd" stroke="none" stroke-width="1"/></g></svg>